<svg width="185" height="42" viewBox="0 0 185 42" fill="none" xmlns="http://www.w3.org/2000/svg">
<g clip-path="url(#clip0_2798_19725)">
<path d="M91.2764 7.56557L87.2716 11.4596C84.7129 8.84504 81.7649 7.50994 78.372 7.50994C75.424 7.50994 72.9766 8.45564 70.9742 10.4027C68.9718 12.3497 67.9706 14.6305 67.9706 17.4119C67.9706 20.249 69.0274 22.6411 71.0855 24.6437C73.1435 26.5907 75.7021 27.5921 78.7057 27.5921C80.6525 27.5921 82.3212 27.2027 83.6561 26.3682C84.991 25.5338 86.1035 24.2543 86.9378 22.5298H78.2607V17.245H93.3344L93.39 18.4689C93.39 21.0278 92.7226 23.4755 91.332 25.8119C89.9414 28.1484 88.2171 29.8729 86.0479 31.0967C83.8786 32.3205 81.3756 32.9325 78.4832 32.9325C75.3684 32.9325 72.5873 32.2649 70.1955 30.9298C67.7481 29.5947 65.857 27.7033 64.4108 25.2556C63.0202 22.808 62.2971 20.1378 62.2971 17.3007C62.2971 13.4066 63.6321 10.0133 66.2463 7.12054C69.3612 3.67153 73.366 2.00266 78.372 2.00266C80.9862 2.00266 83.4336 2.50332 85.6585 3.44901C87.6053 4.22782 89.4408 5.61855 91.2764 7.56557Z" fill="white"/>
<path d="M97.4503 2.05827H103.013V32.2093H97.4503V2.05827Z" fill="white"/>
<path d="M118.42 9.90198C120.534 9.90198 122.48 10.4026 124.316 11.4596C126.152 12.4609 127.598 13.8516 128.599 15.6318C129.656 17.4119 130.156 19.3033 130.156 21.306C130.156 23.3642 129.656 25.2556 128.599 27.0914C127.542 28.9271 126.152 30.2622 124.372 31.2636C122.592 32.2649 120.589 32.7656 118.476 32.7656C115.305 32.7656 112.58 31.653 110.355 29.4278C108.13 27.2026 106.962 24.5324 106.962 21.3616C106.962 17.9682 108.241 15.1311 110.744 12.8503C112.969 10.8477 115.528 9.90198 118.42 9.90198ZM118.531 15.0199C116.807 15.0199 115.361 15.6318 114.248 16.8C113.08 17.9682 112.524 19.4702 112.524 21.306C112.524 23.1973 113.08 24.755 114.248 25.9232C115.361 27.0914 116.807 27.7033 118.531 27.7033C120.256 27.7033 121.702 27.0914 122.87 25.9232C124.038 24.755 124.594 23.1973 124.594 21.3616C124.594 19.4702 124.038 17.9682 122.87 16.8C121.702 15.5762 120.256 15.0199 118.531 15.0199Z" fill="white"/>
<path d="M133.382 10.4583H138.166V13.1841C138.667 12.1271 139.39 11.2927 140.224 10.7364C141.058 10.1801 142.004 9.90198 143.005 9.90198C143.728 9.90198 144.451 10.0689 145.286 10.4583L143.561 15.1311C142.894 14.7973 142.393 14.6305 141.948 14.6305C141.114 14.6305 140.391 15.1311 139.779 16.1881C139.167 17.245 138.889 19.2477 138.889 22.3073V23.3642V32.1536H133.382V10.4583Z" fill="white"/>
<path d="M150.18 1.50198C151.182 1.50198 152.016 1.83576 152.683 2.55894C153.407 3.22649 153.74 4.11655 153.74 5.06225C153.74 6.06357 153.407 6.84238 152.683 7.56556C152.016 8.23311 151.182 8.62251 150.236 8.62251C149.235 8.62251 148.401 8.28874 147.733 7.56556C147.01 6.84238 146.676 6.00794 146.676 5.00662C146.676 4.06092 147.01 3.22649 147.733 2.55894C148.345 1.83576 149.179 1.50198 150.18 1.50198ZM147.399 10.4583H152.962V32.2093H147.399V10.4583Z" fill="#61B7E4"/>
<path d="M167.701 2.78145H173.486L185 32.2093H179.104L176.768 26.1457H164.587L162.139 32.2093H156.243L167.701 2.78145ZM170.649 10.5695L166.645 20.694H174.654L170.649 10.5695Z" fill="#61B7E4"/>
<path d="M17.6879 27.7033L20.1353 27.8146C25.0301 27.9815 29.3686 27.9815 33.7071 26.4238C37.0445 25.2 38.6019 23.0861 39.2138 20.9722C33.3734 24.1987 25.92 25.3113 19.1341 23.8649C12.0144 22.3073 4.17168 16.8556 3.78232 8.56689C3.78232 8.17749 3.78232 7.73245 3.78232 7.34305C1.44618 10.4583 0 14.3523 0 18.5245C0 28.0927 7.34215 35.9921 16.6311 36.9378C17.1873 34.7126 17.4654 32.3762 17.5767 30.0954L17.6879 27.7033Z" fill="#61B7E4"/>
<path d="M34.5415 0H18.5223C17.688 0 16.9092 0.0556291 16.1305 0.166887C13.6275 0.500662 11.2914 1.78013 9.90082 3.89404C9.06648 5.17351 8.56588 6.6755 8.67713 8.34437C8.95524 14.0742 14.7956 17.9126 20.1353 19.0252C27.1994 20.5272 34.2634 18.5245 41.1606 14.7974L43.9417 13.1285L44.2754 15.743C45.221 22.8079 41.8281 28.5934 35.3202 30.9298C30.9817 32.4874 26.6432 32.7656 22.249 32.6543C22.1934 33.2106 22.1377 33.7669 22.0265 34.3232C21.9153 35.2132 21.7484 36.1033 21.5815 37.049C21.2478 38.7179 20.7472 40.3868 20.191 42L25.4751 39.2185C28.2562 37.7722 31.3154 36.9934 34.4859 37.1046C44.6648 37.1046 53.0082 28.7603 53.0082 18.5801C53.0638 8.34437 44.7204 0 34.5415 0Z" fill="#61B7E4"/>
</g>
<defs>
<clipPath id="clip0_2798_19725">
<rect width="185" height="42" fill="white"/>
</clipPath>
</defs>
</svg>
